<svg xmlns="http://www.w3.org/2000/svg" width="512" height="512" viewBox="0 0 512 512"><path fill="#0E2A55" d="M512 472c0 22.1-17.9 40-40 40H40c-22.1 0-40-17.9-40-40V40C0 17.9 17.9 0 40 0h432c22.1 0 40 17.9 40 40v432z"/><path fill="#55B8F2" d="M104.3 256c0-82.8 67.9-149.9 151.7-149.9 83.8 0 151.7 67.1 151.7 149.9 0 37.1-13.7 71.1-36.3 97.3l24.2 25.3C425 346 442.8 303 442.8 256c0-101.9-83.6-184.6-186.8-184.6-103.2 0-186.8 82.7-186.8 184.6 0 48.2 18.7 92 49.2 124.9l22.9-26.7c-23-26.3-37-60.7-37-98.2z"/><path fill="#FFF" d="M351 372.9c-26 20.7-59 33-95 33-35.7 0-68.6-12.2-94.5-32.6l-21.9 27.1c31.9 25.2 72.4 40.2 116.4 40.2 44.5 0 85.3-15.4 117.4-41L351 372.9z"/><circle fill="#0E2A55" cx="256.2" cy="196.8" r="17.1"/><path fill="#FFF" d="M303.5 236h-29v-1.5c14-6.8 23.6-21.1 23.6-37.7 0-23.1-18.7-41.9-41.9-41.9-23.1 0-41.9 18.7-41.9 41.9 0 16.2 9.2 30.3 22.7 37.2v2h-28.5v23.4H237v152.5h37.4V259.4h29V236zm-47.3-56.3c9.4 0 17.1 7.6 17.1 17.1 0 9.4-7.6 17.1-17.1 17.1-9.4 0-17.1-7.6-17.1-17.1 0-9.4 7.7-17.1 17.1-17.1z"/></svg>